<svg width="25" height="22" viewBox="0 0 25 22" fill="none" xmlns="http://www.w3.org/2000/svg">
<path d="M5.72512 0L15.8626 10.158C16.6749 10.9719 17.9919 10.9719 18.8042 10.158C19.6165 9.34403 19.6165 8.02439 18.8042 7.21045L11.6083 0H17.2152C18.0081 0 18.7457 0.407368 19.1692 1.07917L24.6429 9.76338C25.119 10.5188 25.119 11.4812 24.6429 12.2366L19.1692 20.9208C18.8656 21.4025 18.4006 21.7482 17.8694 21.9053L7.24859 11.2631C6.4363 10.4491 5.11931 10.4491 4.30701 11.2631C3.49472 12.077 3.49472 13.3967 4.30701 14.2106L12.0807 22H2.31112C1.03473 22 0 20.9632 0 19.6842V2.31579C0 1.03682 1.03473 0 2.31112 0H5.72512Z" fill="white"/>
</svg>
